<?xml version="1.0" encoding="utf-8"?>
<!-- Generator: Adobe Illustrator 19.1.0, SVG Export Plug-In . SVG Version: 6.00 Build 0)  -->
<!DOCTYPE svg PUBLIC "-//W3C//DTD SVG 1.1//EN" "http://www.w3.org/Graphics/SVG/1.1/DTD/svg11.dtd">
<svg version="1.1" id="Lager_1" xmlns="http://www.w3.org/2000/svg" xmlns:xlink="http://www.w3.org/1999/xlink" x="0px" y="0px"
	 width="266.8px" height="194.725px" viewBox="0 0 266.8 194.725" style="enable-background:new 0 0 266.8 194.725;"
	 xml:space="preserve">
<style type="text/css">
	.st0{fill:#231F20;}
	.st1{fill:#EF4023;}
</style>
<g>
	<path class="st0" d="M6.002,180.382h2.84l6.002,14.103h-3.221l-1.28-3.141H4.421l-1.28,3.141H0L6.002,180.382z M9.242,188.623
		l-1.86-4.541l-1.86,4.541H9.242z"/>
	<path class="st0" d="M17.94,180.482h3.081v6.121l5.681-6.121h3.721l-5.701,5.941l5.961,8.062h-3.701l-4.341-5.961l-1.62,1.68v4.281
		H17.94V180.482z"/>
	<path class="st0" d="M38.68,180.382h2.84l6.001,14.103h-3.221l-1.28-3.141H37.1l-1.28,3.141h-3.141L38.68,180.382z M41.921,188.623
		l-1.86-4.541l-1.86,4.541H41.921z"/>
	<path class="st0" d="M50.758,180.482h5.461c4.401,0,7.442,3.02,7.442,6.962v0.039c0,3.941-3.041,7.002-7.442,7.002h-5.461V180.482z
		 M56.22,191.704c2.521,0,4.221-1.7,4.221-4.182v-0.04c0-2.48-1.7-4.221-4.221-4.221h-2.38v8.442H56.22z"/>
	<path class="st0" d="M67.298,180.482H77.86v2.74h-7.501v2.841h6.601v2.74h-6.601v2.941h7.602v2.74H67.298V180.482z"/>
	<path class="st0" d="M82.44,180.482h3.321l3.681,5.921l3.681-5.921h3.321v14.003h-3.061v-9.142l-3.941,5.98h-0.08l-3.901-5.921
		v9.082H82.44V180.482z"/>
	<path class="st0" d="M101.527,180.482h3.081v14.003h-3.081V180.482z"/>
	<path class="st0" d="M109.655,180.482h6.501c1.601,0,2.861,0.44,3.661,1.24c0.64,0.64,0.96,1.42,0.96,2.381v0.04
		c0,1.58-0.84,2.46-1.84,3.021c1.62,0.62,2.621,1.56,2.621,3.44v0.04c0,2.561-2.08,3.841-5.241,3.841h-6.662V180.482z
		 M115.496,186.143c1.36,0,2.221-0.44,2.221-1.48v-0.04c0-0.92-0.72-1.44-2.021-1.44h-3.04v2.961H115.496z M116.316,191.784
		c1.36,0,2.181-0.48,2.181-1.52v-0.04c0-0.94-0.7-1.52-2.281-1.52h-3.56v3.081H116.316z"/>
	<path class="st0" d="M124.414,187.523v-0.04c0-3.98,3.141-7.241,7.462-7.241c4.32,0,7.422,3.221,7.422,7.202v0.039
		c0,3.981-3.141,7.242-7.462,7.242C127.515,194.725,124.414,191.504,124.414,187.523z M136.077,187.523v-0.04
		c0-2.4-1.761-4.4-4.241-4.4c-2.48,0-4.201,1.96-4.201,4.361v0.039c0,2.401,1.761,4.401,4.241,4.401
		S136.077,189.924,136.077,187.523z"/>
	<path class="st0" d="M142.733,180.482h3.082v6.121l5.681-6.121h3.721l-5.701,5.941l5.961,8.062h-3.7l-4.342-5.961l-1.619,1.68
		v4.281h-3.082V180.482z"/>
	<path class="st0" d="M158.907,180.482h3.081v5.541h5.681v-5.541h3.081v14.003h-3.081v-5.621h-5.681v5.621h-3.081V180.482z"/>
	<path class="st0" d="M179.829,180.382h2.84l6.002,14.103h-3.221l-1.281-3.141h-5.921l-1.28,3.141h-3.141L179.829,180.382z
		 M183.069,188.623l-1.86-4.541l-1.86,4.541H183.069z"/>
	<path class="st0" d="M191.767,180.482h2.841l6.562,8.622v-8.622h3.041v14.003h-2.621l-6.781-8.902v8.902h-3.041V180.482z"/>
	<path class="st0" d="M208.905,180.482h5.462c4.401,0,7.441,3.02,7.441,6.962v0.039c0,3.941-3.04,7.002-7.441,7.002h-5.462V180.482z
		 M214.367,191.704c2.521,0,4.221-1.7,4.221-4.182v-0.04c0-2.48-1.7-4.221-4.221-4.221h-2.38v8.442H214.367z"/>
	<path class="st0" d="M225.505,180.482h10.562v2.74h-7.501v2.841h6.601v2.74h-6.601v2.941h7.602v2.74h-10.663V180.482z"/>
	<path class="st0" d="M240.647,180.482h3.08v11.202h6.982v2.801h-10.062V180.482z"/>
	<path class="st0" d="M254.356,180.482h2.841l6.561,8.622v-8.622h3.041v14.003h-2.621l-6.781-8.902v8.902h-3.041V180.482z"/>
</g>
<path class="st0" d="M247.708,149.076v-0.001h-7.928l5.017-10.307l-1.832-0.607c-0.078-0.027-3.439-1.133-10.213-2.31l5.588-12.042
	l-2.145-0.397c-0.031-0.004-5.492-1.017-13.586-1.939l4.947-10.221l-2.051-0.485c-0.071-0.017-8.068-1.909-19.346-2.457
	c3.615-9.055,5.607-18.937,5.607-29.284C211.766,35.38,176.389,0.001,132.743,0C89.097,0.003,53.717,35.38,53.717,79.025
	c0,10.397,2.012,20.324,5.66,29.417c-10.057,0.667-16.993,2.309-17.059,2.324l-2.051,0.483l4.946,10.223
	c-8.094,0.923-13.554,1.936-13.584,1.939l-2.145,0.397l0.918,1.979h-0.002l4.671,10.063c-6.774,1.177-10.133,2.282-10.211,2.31
	l-1.835,0.606l5.019,10.308h-7.928c-1.708,0-2.093,1.386-2.093,3.093c0,1.709,0.385,3.094,2.093,3.094l94.064-0.002
	c1.377,1.573,3.352,3.472,6.057,5.115c3.396,2.072,7.963,3.7,13.646,3.693h0.037c5.666,0,10.218-1.627,13.609-3.693
	c3.24-1.973,5.801-4.811,6.068-5.115h94.108c1.708,0,2.292-1.383,2.292-3.092C250,150.461,249.416,149.076,247.708,149.076z
	 M57.948,79.025c0-20.66,8.369-39.345,21.906-52.888c13.543-13.537,32.229-21.906,52.889-21.906
	c20.662,0,39.345,8.369,52.888,21.906c13.538,13.543,21.904,32.228,21.906,52.888c-0.001,10.344-2.099,20.19-5.892,29.146
	c-0.479-0.005-0.96-0.008-1.446-0.008c-2.318,0-4.729,0.068-7.196,0.227c4.33-8.87,6.765-18.835,6.767-29.372
	c-0.002-37.017-30.01-67.024-67.026-67.026c-37.02,0.002-67.026,30.01-67.026,67.026c0,10.486,2.414,20.405,6.704,29.244
	c-1.632-0.069-3.233-0.099-4.794-0.099c-1.285,0-2.541,0.021-3.766,0.059C60.055,99.253,57.948,89.389,57.948,79.025z
	 M122.761,31.524c-0.124-0.222-0.251-0.435-0.374-0.634c0.783-0.124,1.75-0.317,2.92-0.568c2.059-0.455,4.586-1.106,7.082-1.909
	c2.555-0.824,4.801-1.925,6.519-2.866c0.859-0.47,1.587-0.903,2.145-1.237c0.057-0.035,0.113-0.068,0.166-0.102
	c0.039,0.109,0.072,0.216,0.09,0.301l0.018,0.072l0.727,2.09l28.467,85.952c-6.258,2.069-11.506,4.715-15.902,7.778l-6.872-20.638
	h-37.19l-4.99,16.191c-2.164-1.047-4.484-2.01-6.965-2.882l23.606-72.7c0.011-0.034,0.362-1.187,0.72-2.436
	c0.179-0.626,0.359-1.274,0.502-1.827c0.142-0.593,0.246-0.913,0.287-1.462c0-0.075,0-0.115,0-0.138
	C123.686,33.274,123.202,32.358,122.761,31.524z M140.916,23.558L140.916,23.558C140.916,23.558,140.916,23.558,140.916,23.558
	L140.916,23.558z M145.256,25.585l-0.69-1.989c-0.127-0.469-0.314-1.024-0.637-1.601c-0.176-0.304-0.385-0.619-0.729-0.933
	c-0.33-0.302-0.883-0.638-1.596-0.638c-0.369-0.001-0.723,0.097-1.005,0.236c-0.372,0.184-0.732,0.413-1.292,0.746
	c-1.624,0.978-4.55,2.688-7.956,3.783c-2.368,0.765-4.812,1.392-6.773,1.826c-1.92,0.436-3.33,0.608-3.719,0.652
	c-0.387,0.043-1.078,0.223-1.736,0.88c-0.285,0.333-0.633,0.771-0.679,1.831c-0.005,0.42,0.134,0.891,0.382,1.256
	c0.233,0.351,0.633,0.916,0.977,1.535c0.326,0.547,0.477,0.937,0.48,1.447c0.004,0.512-0.33,1.434-0.645,2.499
	c-0.336,1.175-0.661,2.239-0.661,2.241l-23.617,72.66c-2.318-0.701-4.752-1.335-7.341-1.874c-3.946-0.826-7.878-1.341-11.69-1.64
	C71.713,99.69,69.1,89.66,69.1,79.019c0.002-17.579,7.121-33.479,18.641-45.002c11.522-11.52,27.422-18.639,45.003-18.641
	c17.579,0.002,33.479,7.121,45.001,18.641c11.519,11.522,18.641,27.423,18.641,45.002c0.001,10.732-2.658,20.841-7.348,29.71
	c-3.036,0.312-6.13,0.767-9.234,1.416c-2.107,0.438-4.119,0.937-6.047,1.482L145.256,25.585z M31.81,149.075l-4.009-8.232
	c4.915-1.277,19.553-4.421,44.662-4.423c14.838-0.002,24.212,2.075,30.361,4.919c4.895,2.273,7.792,4.985,9.932,7.736H31.81z
	 M123.45,154.453c-2.561-1.556-7.778-7.569-10.218-10.05v0.079c-2.194-2.236-5.058-4.411-8.987-6.216
	c-6.779-3.127-16.639-5.228-31.781-5.23c-14.828,0-26.082,1.084-33.92,2.256l-4.139-8.923c0.293-0.047,0.616-0.1,0.965-0.155
	c6.014-0.948,19.885-2.851,34.172-2.85c4.024,0,8.078,0.149,11.992,0.515c14.327,1.329,24.203,6.748,31.178,13.451
	c5.761,5.549,9.512,12.015,11.947,17.789C124.24,154.905,123.832,154.686,123.45,154.453z M128.91,156.675
	c-2.478-6.728-6.677-14.867-13.852-21.781c-7.462-7.203-18.174-13.008-33.212-14.385c-4.043-0.376-8.197-0.525-12.305-0.525
	c-7.383,0-14.615,0.494-20.754,1.105l-3.61-7.461c3.754-0.72,12.234-2.081,22.45-2.081c6.156,0,12.942,0.493,19.698,1.91
	c16.585,3.485,26.82,10.311,33.325,18.455c6.091,7.637,8.927,16.541,10.3,25.138C130.237,156.955,129.558,156.83,128.91,156.675z
	 M133.913,154.346c-1.557-8.301-4.565-16.954-10.615-24.545c-3.67-4.608-8.467-8.784-14.65-12.24l4.407-14.414h32.249l6.387,19.465
	c-2.755,2.234-5.134,4.644-7.161,7.189C138.479,137.392,135.469,146.045,133.913,154.346z M136.876,157.044
	c1.372-8.594,4.208-17.496,10.298-25.132c6.506-8.144,16.739-14.97,33.323-18.455c6.756-1.417,13.544-1.91,19.702-1.91
	c6.957,0,13.111,0.631,17.512,1.261c2.061,0.296,3.738,0.591,4.936,0.82l-3.611,7.461c-6.139-0.611-13.371-1.107-20.754-1.107
	c-4.107,0-8.262,0.151-12.305,0.527c-15.037,1.379-25.748,7.184-33.211,14.385c-7.168,6.908-11.365,15.042-13.844,21.767
	C138.271,156.816,137.594,156.949,136.876,157.044z M144.32,154.453c-0.362,0.219-0.745,0.429-1.142,0.634
	c2.437-5.767,6.185-12.219,11.935-17.758c6.974-6.701,16.85-12.12,31.176-13.451c3.915-0.363,7.969-0.513,11.992-0.513
	c9.523,0,18.867,0.844,25.815,1.689c3.476,0.423,6.352,0.846,8.356,1.16c0.35,0.056,0.672,0.108,0.967,0.157l-4.141,8.921
	c-7.837-1.172-19.091-2.256-33.92-2.256c-15.141,0.002-25.002,2.103-31.779,5.23c-3.815,1.751-6.63,3.854-8.799,6.02
	C154.781,144.286,147.629,152.487,144.32,154.453z M155.07,149.075c2.137-2.751,5.035-5.464,9.928-7.736
	c6.15-2.844,15.525-4.921,30.361-4.919c15.847,0,27.524,1.254,35.219,2.499c3.846,0.621,6.697,1.244,8.578,1.704
	c0.316,0.079,0.606,0.15,0.867,0.22l-4.008,8.232H155.07z M146.104,94.704l-15.622-47.003h-2.948l-15.293,47.003H146.104z
	 M129.027,54.053l12.384,37.266h-24.51L129.027,54.053z"/>
<path class="st1" d="M140.926,23.55c0-0.002,0-0.002,0-0.002s0,0,0.001,0L140.926,23.55z M145.266,25.575l-0.689-1.988
	c-0.127-0.469-0.315-1.025-0.637-1.601c-0.176-0.303-0.385-0.618-0.729-0.932c-0.33-0.302-0.883-0.638-1.596-0.638
	c-0.369-0.001-0.722,0.097-1.004,0.235c-0.374,0.185-0.733,0.414-1.293,0.747c-1.623,0.977-4.551,2.686-7.957,3.783
	c-2.369,0.764-4.811,1.392-6.773,1.827c-1.92,0.434-3.331,0.606-3.719,0.65c-0.387,0.043-1.079,0.224-1.736,0.881
	c-0.285,0.332-0.633,0.77-0.68,1.832c-0.004,0.419,0.135,0.89,0.383,1.255c0.233,0.353,0.633,0.916,0.977,1.534
	c0.326,0.548,0.477,0.938,0.48,1.448c0.004,0.512-0.33,1.433-0.645,2.499c-0.336,1.176-0.661,2.239-0.661,2.239L95.371,112.01
	c-2.319-0.7-4.753-1.334-7.341-1.875c-3.947-0.826-7.878-1.34-11.69-1.639c-4.616-8.816-7.23-18.845-7.229-29.485
	c0.002-17.58,7.121-33.48,18.641-45.003c11.523-11.518,27.422-18.64,45.003-18.641c17.579,0.001,33.478,7.122,45.001,18.641
	c11.52,11.522,18.64,27.423,18.642,45.003c0.001,10.731-2.659,20.839-7.349,29.709c-3.037,0.313-6.13,0.765-9.234,1.415
	c-2.106,0.44-4.119,0.938-6.047,1.483L145.266,25.575z M133.922,154.338c-1.557-8.301-4.566-16.954-10.615-24.545
	c-3.67-4.609-8.467-8.786-14.651-12.241l4.407-14.414h32.25l6.387,19.464c-2.755,2.234-5.135,4.646-7.162,7.191
	C138.488,137.384,135.478,146.037,133.922,154.338z M129.037,54.044l12.383,37.267h-24.509L129.037,54.044z"/>
</svg>
